<svg width="128" height="128" viewBox="0 0 128 128" fill="none" xmlns="http://www.w3.org/2000/svg">
  <rect width="128" height="128" rx="32" fill="#111827"/>
  <path d="M34 92V36H58.8C65.8 36 71.2 37.6333 75 40.9C78.8667 44.1 80.8 48.5667 80.8 54.3C80.8 58.2333 79.8 61.5667 77.8 64.3C75.8667 66.9667 73.1 68.9333 69.5 70.2L82.8 92H68.9L57.2 72.2H46.7V92H34ZM46.7 61.7H57.3C60.5 61.7 62.9667 61.0333 64.7 59.7C66.4333 58.3 67.3 56.3333 67.3 53.8C67.3 51.2667 66.4667 49.3333 64.8 48C63.1333 46.6 60.6667 45.9 57.4 45.9H46.7V61.7Z" fill="#F4EDE1"/>
  <circle cx="94" cy="35" r="10" fill="#F97316"/>
</svg>
